# MagicaVoxel @ Ephtracy

# group
o 

# material
mtllib Coin.mtl
usemtl palette

# normals
vn -1 0 0
vn 1 0 0
vn 0 0 1
vn 0 0 -1
vn 0 -1 0
vn 0 1 0

# texcoords
vt 0.0136719 0.5
vt 0.0214844 0.5

# verts
v -0.5 0.3 0.1
v -0.5 0.3 0
v -0.5 0.8 0.1
v -0.5 0.8 0
v -0.4 0.2 0.1
v -0.4 0.2 0
v -0.4 0.3 0.1
v -0.4 0.3 0
v -0.4 0.8 0.1
v -0.4 0.8 0
v -0.4 0.9 0.1
v -0.4 0.9 0
v -0.3 0.1 0.1
v -0.3 0.1 0
v -0.3 0.2 0.1
v -0.3 0.2 0
v -0.3 0.3 0.2
v -0.3 0.3 0.1
v -0.3 0.8 0.2
v -0.3 0.8 0.1
v -0.3 0.9 0.1
v -0.3 0.9 0
v -0.3 1 0.1
v -0.3 1 0
v -0.2 0 0.1
v -0.2 0 0
v -0.2 0.1 0.1
v -0.2 0.1 0
v -0.2 0.2 0.2
v -0.2 0.2 0.1
v -0.2 0.3 0.2
v -0.2 0.3 0.1
v -0.2 0.8 0.2
v -0.2 0.8 0.1
v -0.2 0.9 0.2
v -0.2 0.9 0.1
v 0.2 0.3 0.2
v 0.2 0.3 0.1
v 0.2 0.4 0.2
v 0.2 0.4 0.1
v 0.2 0.7 0.2
v 0.2 0.7 0.1
v 0.2 0.8 0.2
v 0.2 0.8 0.1
v -0.2 0.3 0.2
v -0.2 0.3 0.1
v -0.2 0.8 0.2
v -0.2 0.8 0.1
v 0.2 0 0.1
v 0.2 0 0
v 0.2 0.1 0.1
v 0.2 0.1 0
v 0.2 0.2 0.2
v 0.2 0.2 0.1
v 0.2 0.3 0.2
v 0.2 0.3 0.1
v 0.2 0.8 0.2
v 0.2 0.8 0.1
v 0.2 0.9 0.2
v 0.2 0.9 0.1
v 0.3 0.1 0.1
v 0.3 0.1 0
v 0.3 0.2 0.1
v 0.3 0.2 0
v 0.3 0.3 0.2
v 0.3 0.3 0.1
v 0.3 0.4 0.2
v 0.3 0.4 0.1
v 0.3 0.7 0.2
v 0.3 0.7 0.1
v 0.3 0.8 0.2
v 0.3 0.8 0.1
v 0.3 0.9 0.1
v 0.3 0.9 0
v 0.3 1 0.1
v 0.3 1 0
v 0.4 0.2 0.1
v 0.4 0.2 0
v 0.4 0.3 0.1
v 0.4 0.3 0
v 0.4 0.8 0.1
v 0.4 0.8 0
v 0.4 0.9 0.1
v 0.4 0.9 0
v 0.5 0.3 0.1
v 0.5 0.3 0
v 0.5 0.8 0.1
v 0.5 0.8 0
v -0.3 0.3 0.2
v -0.3 0.8 0.2
v -0.2 0.2 0.2
v -0.2 0.3 0.2
v -0.2 0.8 0.2
v -0.2 0.9 0.2
v 0.2 0.2 0.2
v 0.2 0.3 0.2
v 0.2 0.4 0.2
v 0.2 0.7 0.2
v 0.2 0.8 0.2
v 0.2 0.9 0.2
v 0.3 0.3 0.2
v 0.3 0.4 0.2
v 0.3 0.7 0.2
v 0.3 0.8 0.2
v -0.5 0.3 0.1
v -0.5 0.8 0.1
v -0.4 0.2 0.1
v -0.4 0.3 0.1
v -0.4 0.8 0.1
v -0.4 0.9 0.1
v -0.3 0.1 0.1
v -0.3 0.2 0.1
v -0.3 0.3 0.1
v -0.3 0.8 0.1
v -0.3 0.9 0.1
v -0.3 1 0.1
v -0.2 0 0.1
v -0.2 0.1 0.1
v -0.2 0.2 0.1
v -0.2 0.3 0.1
v -0.2 0.8 0.1
v -0.2 0.9 0.1
v 0.2 0 0.1
v 0.2 0.1 0.1
v 0.2 0.2 0.1
v 0.2 0.3 0.1
v 0.2 0.4 0.1
v 0.2 0.7 0.1
v 0.2 0.8 0.1
v 0.2 0.9 0.1
v 0.3 0.1 0.1
v 0.3 0.2 0.1
v 0.3 0.3 0.1
v 0.3 0.4 0.1
v 0.3 0.7 0.1
v 0.3 0.8 0.1
v 0.3 0.9 0.1
v 0.3 1 0.1
v 0.4 0.2 0.1
v 0.4 0.3 0.1
v 0.4 0.8 0.1
v 0.4 0.9 0.1
v 0.5 0.3 0.1
v 0.5 0.8 0.1
v -0.5 0.3 0
v -0.5 0.8 0
v -0.4 0.2 0
v -0.4 0.3 0
v -0.4 0.8 0
v -0.4 0.9 0
v -0.3 0.1 0
v -0.3 0.2 0
v -0.3 0.9 0
v -0.3 1 0
v -0.2 0 0
v -0.2 0.1 0
v 0.2 0 0
v 0.2 0.1 0
v 0.3 0.1 0
v 0.3 0.2 0
v 0.3 0.9 0
v 0.3 1 0
v 0.4 0.2 0
v 0.4 0.3 0
v 0.4 0.8 0
v 0.4 0.9 0
v 0.5 0.3 0
v 0.5 0.8 0
v -0.2 0 0.1
v 0.2 0 0.1
v -0.2 0 0
v 0.2 0 0
v -0.3 0.1 0.1
v -0.2 0.1 0.1
v 0.2 0.1 0.1
v 0.3 0.1 0.1
v -0.3 0.1 0
v -0.2 0.1 0
v 0.2 0.1 0
v 0.3 0.1 0
v -0.2 0.2 0.2
v 0.2 0.2 0.2
v -0.4 0.2 0.1
v -0.3 0.2 0.1
v -0.2 0.2 0.1
v 0.2 0.2 0.1
v 0.3 0.2 0.1
v 0.4 0.2 0.1
v -0.4 0.2 0
v -0.3 0.2 0
v 0.3 0.2 0
v 0.4 0.2 0
v -0.3 0.3 0.2
v -0.2 0.3 0.2
v 0.2 0.3 0.2
v 0.3 0.3 0.2
v -0.5 0.3 0.1
v -0.4 0.3 0.1
v -0.3 0.3 0.1
v -0.2 0.3 0.1
v 0.2 0.3 0.1
v 0.3 0.3 0.1
v 0.4 0.3 0.1
v 0.5 0.3 0.1
v -0.5 0.3 0
v -0.4 0.3 0
v 0.4 0.3 0
v 0.5 0.3 0
v 0.2 0.7 0.2
v 0.3 0.7 0.2
v 0.2 0.7 0.1
v 0.3 0.7 0.1
v -0.2 0.8 0.2
v 0.2 0.8 0.2
v -0.2 0.8 0.1
v 0.2 0.8 0.1
v -0.2 0.3 0.2
v 0.2 0.3 0.2
v -0.2 0.3 0.1
v 0.2 0.3 0.1
v 0.2 0.4 0.2
v 0.3 0.4 0.2
v 0.2 0.4 0.1
v 0.3 0.4 0.1
v -0.3 0.8 0.2
v -0.2 0.8 0.2
v 0.2 0.8 0.2
v 0.3 0.8 0.2
v -0.5 0.8 0.1
v -0.4 0.8 0.1
v -0.3 0.8 0.1
v -0.2 0.8 0.1
v 0.2 0.8 0.1
v 0.3 0.8 0.1
v 0.4 0.8 0.1
v 0.5 0.8 0.1
v -0.5 0.8 0
v -0.4 0.8 0
v 0.4 0.8 0
v 0.5 0.8 0
v -0.2 0.9 0.2
v 0.2 0.9 0.2
v -0.4 0.9 0.1
v -0.3 0.9 0.1
v -0.2 0.9 0.1
v 0.2 0.9 0.1
v 0.3 0.9 0.1
v 0.4 0.9 0.1
v -0.4 0.9 0
v -0.3 0.9 0
v 0.3 0.9 0
v 0.4 0.9 0
v -0.3 1 0.1
v 0.3 1 0.1
v -0.3 1 0
v 0.3 1 0

# faces
f 3/1/1 2/1/1 1/1/1
f 4/1/1 2/1/1 3/1/1
f 7/1/1 6/1/1 5/1/1
f 8/1/1 6/1/1 7/1/1
f 11/1/1 10/1/1 9/1/1
f 12/1/1 10/1/1 11/1/1
f 15/1/1 14/1/1 13/1/1
f 16/1/1 14/1/1 15/1/1
f 19/2/1 18/2/1 17/2/1
f 20/2/1 18/2/1 19/2/1
f 23/1/1 22/1/1 21/1/1
f 24/1/1 22/1/1 23/1/1
f 27/1/1 26/1/1 25/1/1
f 28/1/1 26/1/1 27/1/1
f 31/2/1 30/2/1 29/2/1
f 32/2/1 30/2/1 31/2/1
f 35/2/1 34/2/1 33/2/1
f 36/2/1 34/2/1 35/2/1
f 39/2/1 38/2/1 37/2/1
f 40/2/1 38/2/1 39/2/1
f 43/2/1 42/2/1 41/2/1
f 44/2/1 42/2/1 43/2/1
f 45/2/2 46/2/2 47/2/2
f 47/2/2 46/2/2 48/2/2
f 49/1/2 50/1/2 51/1/2
f 51/1/2 50/1/2 52/1/2
f 53/2/2 54/2/2 55/2/2
f 55/2/2 54/2/2 56/2/2
f 57/2/2 58/2/2 59/2/2
f 59/2/2 58/2/2 60/2/2
f 61/1/2 62/1/2 63/1/2
f 63/1/2 62/1/2 64/1/2
f 65/2/2 66/2/2 67/2/2
f 67/2/2 66/2/2 68/2/2
f 69/2/2 70/2/2 71/2/2
f 71/2/2 70/2/2 72/2/2
f 73/1/2 74/1/2 75/1/2
f 75/1/2 74/1/2 76/1/2
f 77/1/2 78/1/2 79/1/2
f 79/1/2 78/1/2 80/1/2
f 81/1/2 82/1/2 83/1/2
f 83/1/2 82/1/2 84/1/2
f 85/1/2 86/1/2 87/1/2
f 87/1/2 86/1/2 88/1/2
f 92/2/3 90/2/3 89/2/3
f 93/2/3 90/2/3 92/2/3
f 95/2/3 92/2/3 91/2/3
f 96/2/3 92/2/3 95/2/3
f 99/2/3 94/2/3 93/2/3
f 100/2/3 94/2/3 99/2/3
f 101/2/3 97/2/3 96/2/3
f 102/2/3 97/2/3 101/2/3
f 103/2/3 99/2/3 98/2/3
f 104/2/3 99/2/3 103/2/3
f 108/1/3 106/1/3 105/1/3
f 109/1/3 106/1/3 108/1/3
f 112/1/3 108/1/3 107/1/3
f 112/1/3 110/1/3 109/1/3
f 112/1/3 109/1/3 108/1/3
f 113/1/3 110/1/3 112/1/3
f 114/1/3 110/1/3 113/1/3
f 115/1/3 110/1/3 114/1/3
f 118/1/3 112/1/3 111/1/3
f 118/1/3 113/1/3 112/1/3
f 119/1/3 113/1/3 118/1/3
f 120/1/3 113/1/3 119/1/3
f 121/1/3 115/1/3 114/1/3
f 121/1/3 116/1/3 115/1/3
f 122/1/3 116/1/3 121/1/3
f 123/1/3 119/1/3 118/1/3
f 123/1/3 118/1/3 117/1/3
f 124/1/3 119/1/3 123/1/3
f 125/1/3 119/1/3 124/1/3
f 126/1/3 121/1/3 120/1/3
f 127/1/3 121/1/3 126/1/3
f 128/1/3 121/1/3 127/1/3
f 129/1/3 121/1/3 128/1/3
f 130/1/3 116/1/3 122/1/3
f 131/1/3 125/1/3 124/1/3
f 131/1/3 126/1/3 125/1/3
f 132/1/3 126/1/3 131/1/3
f 133/1/3 126/1/3 132/1/3
f 134/1/3 128/1/3 127/1/3
f 135/1/3 128/1/3 134/1/3
f 136/1/3 130/1/3 129/1/3
f 137/1/3 116/1/3 130/1/3
f 137/1/3 130/1/3 136/1/3
f 138/1/3 116/1/3 137/1/3
f 139/1/3 135/1/3 134/1/3
f 139/1/3 136/1/3 135/1/3
f 139/1/3 137/1/3 136/1/3
f 139/1/3 133/1/3 132/1/3
f 139/1/3 134/1/3 133/1/3
f 140/1/3 137/1/3 139/1/3
f 141/1/3 137/1/3 140/1/3
f 142/1/3 137/1/3 141/1/3
f 143/1/3 141/1/3 140/1/3
f 144/1/3 141/1/3 143/1/3
f 145/1/4 146/1/4 148/1/4
f 148/1/4 146/1/4 149/1/4
f 147/1/4 148/1/4 152/1/4
f 149/1/4 150/1/4 152/1/4
f 148/1/4 149/1/4 152/1/4
f 152/1/4 150/1/4 153/1/4
f 151/1/4 152/1/4 156/1/4
f 153/1/4 154/1/4 156/1/4
f 152/1/4 153/1/4 156/1/4
f 155/1/4 156/1/4 157/1/4
f 156/1/4 154/1/4 158/1/4
f 157/1/4 156/1/4 158/1/4
f 158/1/4 154/1/4 159/1/4
f 159/1/4 154/1/4 160/1/4
f 160/1/4 154/1/4 161/1/4
f 161/1/4 154/1/4 162/1/4
f 160/1/4 161/1/4 163/1/4
f 163/1/4 161/1/4 164/1/4
f 164/1/4 161/1/4 165/1/4
f 165/1/4 161/1/4 166/1/4
f 164/1/4 165/1/4 167/1/4
f 167/1/4 165/1/4 168/1/4
f 171/1/5 170/1/5 169/1/5
f 172/1/5 170/1/5 171/1/5
f 177/1/5 174/1/5 173/1/5
f 178/1/5 174/1/5 177/1/5
f 179/1/5 176/1/5 175/1/5
f 180/1/5 176/1/5 179/1/5
f 185/2/5 182/2/5 181/2/5
f 186/2/5 182/2/5 185/2/5
f 189/1/5 184/1/5 183/1/5
f 190/1/5 184/1/5 189/1/5
f 191/1/5 188/1/5 187/1/5
f 192/1/5 188/1/5 191/1/5
f 199/2/5 194/2/5 193/2/5
f 200/2/5 194/2/5 199/2/5
f 201/2/5 196/2/5 195/2/5
f 202/2/5 196/2/5 201/2/5
f 205/1/5 198/1/5 197/1/5
f 206/1/5 198/1/5 205/1/5
f 207/1/5 204/1/5 203/1/5
f 208/1/5 204/1/5 207/1/5
f 211/2/5 210/2/5 209/2/5
f 212/2/5 210/2/5 211/2/5
f 215/2/5 214/2/5 213/2/5
f 216/2/5 214/2/5 215/2/5
f 217/2/6 218/2/6 219/2/6
f 219/2/6 218/2/6 220/2/6
f 221/2/6 222/2/6 223/2/6
f 223/2/6 222/2/6 224/2/6
f 225/2/6 226/2/6 231/2/6
f 231/2/6 226/2/6 232/2/6
f 227/2/6 228/2/6 233/2/6
f 233/2/6 228/2/6 234/2/6
f 229/1/6 230/1/6 237/1/6
f 237/1/6 230/1/6 238/1/6
f 235/1/6 236/1/6 239/1/6
f 239/1/6 236/1/6 240/1/6
f 241/2/6 242/2/6 245/2/6
f 245/2/6 242/2/6 246/2/6
f 243/1/6 244/1/6 249/1/6
f 249/1/6 244/1/6 250/1/6
f 247/1/6 248/1/6 251/1/6
f 251/1/6 248/1/6 252/1/6
f 253/1/6 254/1/6 255/1/6
f 255/1/6 254/1/6 256/1/6
