# MagicaVoxel @ Ephtracy

# group
o 

# material
mtllib Missle.mtl
usemtl palette

# normals
vn -1 0 0
vn 1 0 0
vn 0 0 1
vn 0 0 -1
vn 0 -1 0
vn 0 1 0

# texcoords
vt 0.138672 0.5
vt 0.279297 0.5
vt 0.314453 0.5
vt 0.583984 0.5
vt 0.681641 0.5
vt 0.728516 0.5
vt 0.841797 0.5
vt 0.853516 0.5
vt 0.857422 0.5
vt 0.994141 0.5

# verts
v -1.5 0 -1.4
v -1.5 0 -1.5
v -1.5 0 -1.6
v -1.5 0.1 -1.4
v -1.5 0.1 -1.5
v -1.5 0.1 -1.6
v -1.4 0 -1.3
v -1.4 0 -1.4
v -1.4 0.1 -1.3
v -1.4 0.1 -1.4
v -1.3 0 -1.2
v -1.3 0 -1.3
v -1.3 0.1 -1.2
v -1.3 0.1 -1.3
v -1.1 0 -1.1
v -1.1 0 -1.2
v -1.1 0.1 -1.1
v -1.1 0.1 -1.2
v -1 0 1.1
v -1 0 1
v -1 0 -1
v -1 0 -1.1
v -1 0.1 1.1
v -1 0.1 1
v -1 0.1 -1
v -1 0.1 -1.1
v -0.9 0 1.3
v -0.9 0 1.1
v -0.9 0.1 1.3
v -0.9 0.1 1.1
v -0.8 0 1.5
v -0.8 0 1.3
v -0.8 0.1 1.5
v -0.8 0.1 1.3
v -0.7 0 1.7
v -0.7 0 1.5
v -0.7 0.1 1.7
v -0.7 0.1 1.5
v -0.6 0 1.8
v -0.6 0 1.7
v -0.6 0.1 1.8
v -0.6 0.1 1.7
v -0.5 0 2
v -0.5 0 1.8
v -0.5 0.1 2
v -0.5 0.1 1.8
v -0.4 0 2
v -0.4 0 1.8
v -0.4 0.1 2
v -0.4 0.1 1.8
v -0.3 0 1.8
v -0.3 0 1.7
v -0.3 0.1 1.8
v -0.3 0.1 1.7
v -0.2 0 1.7
v -0.2 0 1.5
v -0.2 0.1 1.7
v -0.2 0.1 1.5
v -0.1 0 1.5
v -0.1 0 1.3
v -0.1 0.1 1.5
v -0.1 0.1 1.3
v 0 0 1.3
v 0 0 1.1
v 0 0.1 1.3
v 0 0.1 1.1
v 0.1 0 1.1
v 0.1 0 1
v 0.1 0 -1
v 0.1 0 -1.1
v 0.1 0.1 1.1
v 0.1 0.1 1
v 0.1 0.1 -1
v 0.1 0.1 -1.1
v 0.2 0 -1.1
v 0.2 0 -1.2
v 0.2 0.1 -1.1
v 0.2 0.1 -1.2
v 0.4 0 -1.2
v 0.4 0 -1.3
v 0.4 0.1 -1.2
v 0.4 0.1 -1.3
v 0.5 0 -1.3
v 0.5 0 -1.4
v 0.5 0.1 -1.3
v 0.5 0.1 -1.4
v 0.6 0 -1.4
v 0.6 0 -1.5
v 0.6 0 -1.6
v 0.6 0.1 -1.4
v 0.6 0.1 -1.5
v 0.6 0.1 -1.6
v -0.5 0 2
v -0.5 0.1 2
v -0.4 0 2
v -0.4 0.1 2
v -0.6 0 1.8
v -0.6 0.1 1.8
v -0.5 0 1.8
v -0.5 0.1 1.8
v -0.4 0 1.8
v -0.4 0.1 1.8
v -0.3 0 1.8
v -0.3 0.1 1.8
v -0.7 0 1.7
v -0.7 0.1 1.7
v -0.6 0 1.7
v -0.6 0.1 1.7
v -0.3 0 1.7
v -0.3 0.1 1.7
v -0.2 0 1.7
v -0.2 0.1 1.7
v -0.8 0 1.5
v -0.8 0.1 1.5
v -0.7 0 1.5
v -0.7 0.1 1.5
v -0.2 0 1.5
v -0.2 0.1 1.5
v -0.1 0 1.5
v -0.1 0.1 1.5
v -0.9 0 1.3
v -0.9 0.1 1.3
v -0.8 0 1.3
v -0.8 0.1 1.3
v -0.1 0 1.3
v -0.1 0.1 1.3
v 0 0 1.3
v 0 0.1 1.3
v -1 0 1.1
v -1 0.1 1.1
v -0.9 0 1.1
v -0.9 0.1 1.1
v 0 0 1.1
v 0 0.1 1.1
v 0.1 0 1.1
v 0.1 0.1 1.1
v -1.1 0 -1.1
v -1.1 0.1 -1.1
v -1 0 -1.1
v -1 0.1 -1.1
v 0.1 0 -1.1
v 0.1 0.1 -1.1
v 0.2 0 -1.1
v 0.2 0.1 -1.1
v -1.3 0 -1.2
v -1.3 0.1 -1.2
v -1.1 0 -1.2
v -1.1 0.1 -1.2
v 0.2 0 -1.2
v 0.2 0.1 -1.2
v 0.4 0 -1.2
v 0.4 0.1 -1.2
v -1.4 0 -1.3
v -1.4 0.1 -1.3
v -1.3 0 -1.3
v -1.3 0.1 -1.3
v 0.4 0 -1.3
v 0.4 0.1 -1.3
v 0.5 0 -1.3
v 0.5 0.1 -1.3
v -1.5 0 -1.4
v -1.5 0.1 -1.4
v -1.4 0 -1.4
v -1.4 0.1 -1.4
v 0.5 0 -1.4
v 0.5 0.1 -1.4
v 0.6 0 -1.4
v 0.6 0.1 -1.4
v -1.5 0 -1.6
v -1.5 0.1 -1.6
v 0.6 0 -1.6
v 0.6 0.1 -1.6
v -0.5 0 2
v -0.4 0 2
v -0.6 0 1.8
v -0.5 0 1.8
v -0.4 0 1.8
v -0.3 0 1.8
v -0.7 0 1.7
v -0.6 0 1.7
v -0.5 0 1.7
v -0.4 0 1.7
v -0.3 0 1.7
v -0.2 0 1.7
v -0.8 0 1.5
v -0.7 0 1.5
v -0.6 0 1.5
v -0.3 0 1.5
v -0.2 0 1.5
v -0.1 0 1.5
v -0.9 0 1.3
v -0.8 0 1.3
v -0.7 0 1.3
v -0.2 0 1.3
v -0.1 0 1.3
v 0 0 1.3
v -0.8 0 1.2
v -0.1 0 1.2
v -1 0 1.1
v -0.9 0 1.1
v -0.8 0 1.1
v -0.1 0 1.1
v 0 0 1.1
v 0.1 0 1.1
v -1 0 1
v -0.9 0 1
v 0 0 1
v 0.1 0 1
v -0.9 0 0.5
v 0 0 0.5
v -0.9 0 -0.1
v 0 0 -0.1
v -0.8 0 -0.2
v -0.1 0 -0.2
v -1 0 -1
v -0.9 0 -1
v -0.8 0 -1
v -0.1 0 -1
v 0 0 -1
v 0.1 0 -1
v -1.1 0 -1.1
v -1 0 -1.1
v -0.9 0 -1.1
v 0 0 -1.1
v 0.1 0 -1.1
v 0.2 0 -1.1
v -1.3 0 -1.2
v -1.1 0 -1.2
v -1 0 -1.2
v 0.1 0 -1.2
v 0.2 0 -1.2
v 0.4 0 -1.2
v -1.4 0 -1.3
v -1.3 0 -1.3
v -1.1 0 -1.3
v 0.2 0 -1.3
v 0.4 0 -1.3
v 0.5 0 -1.3
v -1.5 0 -1.4
v -1.4 0 -1.4
v -1.3 0 -1.4
v 0.4 0 -1.4
v 0.5 0 -1.4
v 0.6 0 -1.4
v -1.5 0 -1.5
v -1.4 0 -1.5
v 0.5 0 -1.5
v 0.6 0 -1.5
v -1.5 0 -1.6
v 0.6 0 -1.6
v -0.5 0.1 2
v -0.4 0.1 2
v -0.6 0.1 1.8
v -0.5 0.1 1.8
v -0.4 0.1 1.8
v -0.3 0.1 1.8
v -0.7 0.1 1.7
v -0.6 0.1 1.7
v -0.5 0.1 1.7
v -0.4 0.1 1.7
v -0.3 0.1 1.7
v -0.2 0.1 1.7
v -0.8 0.1 1.5
v -0.7 0.1 1.5
v -0.6 0.1 1.5
v -0.3 0.1 1.5
v -0.2 0.1 1.5
v -0.1 0.1 1.5
v -0.9 0.1 1.3
v -0.8 0.1 1.3
v -0.7 0.1 1.3
v -0.2 0.1 1.3
v -0.1 0.1 1.3
v 0 0.1 1.3
v -0.8 0.1 1.2
v -0.1 0.1 1.2
v -1 0.1 1.1
v -0.9 0.1 1.1
v -0.8 0.1 1.1
v -0.1 0.1 1.1
v 0 0.1 1.1
v 0.1 0.1 1.1
v -1 0.1 1
v -0.9 0.1 1
v 0 0.1 1
v 0.1 0.1 1
v -0.9 0.1 0.5
v 0 0.1 0.5
v -0.9 0.1 -0.1
v 0 0.1 -0.1
v -0.8 0.1 -0.2
v -0.1 0.1 -0.2
v -1 0.1 -1
v -0.9 0.1 -1
v -0.8 0.1 -1
v -0.1 0.1 -1
v 0 0.1 -1
v 0.1 0.1 -1
v -1.1 0.1 -1.1
v -1 0.1 -1.1
v -0.9 0.1 -1.1
v 0 0.1 -1.1
v 0.1 0.1 -1.1
v 0.2 0.1 -1.1
v -1.3 0.1 -1.2
v -1.1 0.1 -1.2
v -1 0.1 -1.2
v 0.1 0.1 -1.2
v 0.2 0.1 -1.2
v 0.4 0.1 -1.2
v -1.4 0.1 -1.3
v -1.3 0.1 -1.3
v -1.1 0.1 -1.3
v 0.2 0.1 -1.3
v 0.4 0.1 -1.3
v 0.5 0.1 -1.3
v -1.5 0.1 -1.4
v -1.4 0.1 -1.4
v -1.3 0.1 -1.4
v 0.4 0.1 -1.4
v 0.5 0.1 -1.4
v 0.6 0.1 -1.4
v -1.5 0.1 -1.5
v -1.4 0.1 -1.5
v 0.5 0.1 -1.5
v 0.6 0.1 -1.5
v -1.5 0.1 -1.6
v 0.6 0.1 -1.6

# faces
f 4/8/1 2/8/1 1/8/1
f 5/9/1 3/9/1 2/9/1
f 5/8/1 2/8/1 4/8/1
f 6/9/1 3/9/1 5/9/1
f 9/8/1 8/8/1 7/8/1
f 10/8/1 8/8/1 9/8/1
f 13/8/1 12/8/1 11/8/1
f 14/8/1 12/8/1 13/8/1
f 17/8/1 16/8/1 15/8/1
f 18/8/1 16/8/1 17/8/1
f 23/2/1 20/2/1 19/2/1
f 24/7/1 21/7/1 20/7/1
f 24/2/1 20/2/1 23/2/1
f 25/8/1 22/8/1 21/8/1
f 25/7/1 21/7/1 24/7/1
f 26/8/1 22/8/1 25/8/1
f 29/2/1 28/2/1 27/2/1
f 30/2/1 28/2/1 29/2/1
f 33/2/1 32/2/1 31/2/1
f 34/2/1 32/2/1 33/2/1
f 37/2/1 36/2/1 35/2/1
f 38/2/1 36/2/1 37/2/1
f 41/2/1 40/2/1 39/2/1
f 42/2/1 40/2/1 41/2/1
f 45/2/1 44/2/1 43/2/1
f 46/2/1 44/2/1 45/2/1
f 47/2/2 48/2/2 49/2/2
f 49/2/2 48/2/2 50/2/2
f 51/2/2 52/2/2 53/2/2
f 53/2/2 52/2/2 54/2/2
f 55/2/2 56/2/2 57/2/2
f 57/2/2 56/2/2 58/2/2
f 59/2/2 60/2/2 61/2/2
f 61/2/2 60/2/2 62/2/2
f 63/2/2 64/2/2 65/2/2
f 65/2/2 64/2/2 66/2/2
f 67/2/2 68/2/2 71/2/2
f 68/7/2 69/7/2 72/7/2
f 71/2/2 68/2/2 72/2/2
f 69/8/2 70/8/2 73/8/2
f 72/7/2 69/7/2 73/7/2
f 73/8/2 70/8/2 74/8/2
f 75/8/2 76/8/2 77/8/2
f 77/8/2 76/8/2 78/8/2
f 79/8/2 80/8/2 81/8/2
f 81/8/2 80/8/2 82/8/2
f 83/8/2 84/8/2 85/8/2
f 85/8/2 84/8/2 86/8/2
f 87/8/2 88/8/2 90/8/2
f 88/9/2 89/9/2 91/9/2
f 90/8/2 88/8/2 91/8/2
f 91/9/2 89/9/2 92/9/2
f 95/2/3 94/2/3 93/2/3
f 96/2/3 94/2/3 95/2/3
f 99/2/3 98/2/3 97/2/3
f 100/2/3 98/2/3 99/2/3
f 103/2/3 102/2/3 101/2/3
f 104/2/3 102/2/3 103/2/3
f 107/2/3 106/2/3 105/2/3
f 108/2/3 106/2/3 107/2/3
f 111/2/3 110/2/3 109/2/3
f 112/2/3 110/2/3 111/2/3
f 115/2/3 114/2/3 113/2/3
f 116/2/3 114/2/3 115/2/3
f 119/2/3 118/2/3 117/2/3
f 120/2/3 118/2/3 119/2/3
f 123/2/3 122/2/3 121/2/3
f 124/2/3 122/2/3 123/2/3
f 127/2/3 126/2/3 125/2/3
f 128/2/3 126/2/3 127/2/3
f 131/2/3 130/2/3 129/2/3
f 132/2/3 130/2/3 131/2/3
f 135/2/3 134/2/3 133/2/3
f 136/2/3 134/2/3 135/2/3
f 139/8/3 138/8/3 137/8/3
f 140/8/3 138/8/3 139/8/3
f 143/8/3 142/8/3 141/8/3
f 144/8/3 142/8/3 143/8/3
f 147/8/3 146/8/3 145/8/3
f 148/8/3 146/8/3 147/8/3
f 151/8/3 150/8/3 149/8/3
f 152/8/3 150/8/3 151/8/3
f 155/8/3 154/8/3 153/8/3
f 156/8/3 154/8/3 155/8/3
f 159/8/3 158/8/3 157/8/3
f 160/8/3 158/8/3 159/8/3
f 163/8/3 162/8/3 161/8/3
f 164/8/3 162/8/3 163/8/3
f 167/8/3 166/8/3 165/8/3
f 168/8/3 166/8/3 167/8/3
f 169/9/4 170/9/4 171/9/4
f 171/9/4 170/9/4 172/9/4
f 176/2/5 174/2/5 173/2/5
f 177/2/5 174/2/5 176/2/5
f 180/2/5 176/2/5 175/2/5
f 181/1/5 177/1/5 176/1/5
f 181/2/5 176/2/5 180/2/5
f 182/2/5 178/2/5 177/2/5
f 182/1/5 177/1/5 181/1/5
f 183/2/5 178/2/5 182/2/5
f 186/2/5 180/2/5 179/2/5
f 187/1/5 181/1/5 180/1/5
f 187/1/5 182/1/5 181/1/5
f 187/2/5 180/2/5 186/2/5
f 187/1/5 183/1/5 182/1/5
f 188/2/5 184/2/5 183/2/5
f 188/1/5 183/1/5 187/1/5
f 189/2/5 184/2/5 188/2/5
f 192/2/5 186/2/5 185/2/5
f 193/1/5 187/1/5 186/1/5
f 193/1/5 188/1/5 187/1/5
f 193/2/5 186/2/5 192/2/5
f 193/1/5 189/1/5 188/1/5
f 194/2/5 190/2/5 189/2/5
f 194/1/5 189/1/5 193/1/5
f 195/2/5 190/2/5 194/2/5
f 197/1/5 193/1/5 192/1/5
f 197/2/5 192/2/5 191/2/5
f 197/1/5 195/1/5 194/1/5
f 197/1/5 194/1/5 193/1/5
f 198/2/5 196/2/5 195/2/5
f 198/1/5 195/1/5 197/1/5
f 200/2/5 197/2/5 191/2/5
f 201/6/5 198/6/5 197/6/5
f 201/2/5 197/2/5 200/2/5
f 202/2/5 196/2/5 198/2/5
f 202/6/5 198/6/5 201/6/5
f 203/2/5 196/2/5 202/2/5
f 205/2/5 200/2/5 199/2/5
f 206/6/5 201/6/5 200/6/5
f 206/2/5 200/2/5 205/2/5
f 206/6/5 202/6/5 201/6/5
f 206/6/5 203/6/5 202/6/5
f 207/2/5 204/2/5 203/2/5
f 207/6/5 203/6/5 206/6/5
f 208/2/5 204/2/5 207/2/5
f 209/7/5 206/7/5 205/7/5
f 209/10/5 207/10/5 206/10/5
f 210/7/5 208/7/5 207/7/5
f 210/10/5 207/10/5 209/10/5
f 211/7/5 209/7/5 205/7/5
f 211/4/5 210/4/5 209/4/5
f 212/7/5 208/7/5 210/7/5
f 212/4/5 210/4/5 211/4/5
f 213/3/5 212/3/5 211/3/5
f 214/3/5 212/3/5 213/3/5
f 215/7/5 211/7/5 205/7/5
f 216/3/5 213/3/5 211/3/5
f 216/7/5 211/7/5 215/7/5
f 217/5/5 214/5/5 213/5/5
f 217/3/5 213/3/5 216/3/5
f 218/3/5 212/3/5 214/3/5
f 218/5/5 214/5/5 217/5/5
f 219/7/5 208/7/5 212/7/5
f 219/3/5 212/3/5 218/3/5
f 220/7/5 208/7/5 219/7/5
f 222/8/5 216/8/5 215/8/5
f 223/3/5 217/3/5 216/3/5
f 223/3/5 218/3/5 217/3/5
f 223/8/5 216/8/5 222/8/5
f 223/3/5 219/3/5 218/3/5
f 224/8/5 220/8/5 219/8/5
f 224/3/5 219/3/5 223/3/5
f 225/8/5 220/8/5 224/8/5
f 228/8/5 222/8/5 221/8/5
f 229/7/5 225/7/5 224/7/5
f 229/7/5 224/7/5 223/7/5
f 229/8/5 222/8/5 228/8/5
f 229/7/5 223/7/5 222/7/5
f 230/8/5 226/8/5 225/8/5
f 230/7/5 225/7/5 229/7/5
f 231/8/5 226/8/5 230/8/5
f 234/8/5 228/8/5 227/8/5
f 235/7/5 229/7/5 228/7/5
f 235/7/5 230/7/5 229/7/5
f 235/8/5 228/8/5 234/8/5
f 235/7/5 231/7/5 230/7/5
f 236/8/5 232/8/5 231/8/5
f 236/7/5 231/7/5 235/7/5
f 237/8/5 232/8/5 236/8/5
f 240/8/5 234/8/5 233/8/5
f 241/7/5 235/7/5 234/7/5
f 241/7/5 236/7/5 235/7/5
f 241/8/5 234/8/5 240/8/5
f 241/7/5 237/7/5 236/7/5
f 242/8/5 238/8/5 237/8/5
f 242/7/5 237/7/5 241/7/5
f 243/8/5 238/8/5 242/8/5
f 245/8/5 240/8/5 239/8/5
f 246/7/5 241/7/5 240/7/5
f 246/8/5 240/8/5 245/8/5
f 246/7/5 242/7/5 241/7/5
f 246/7/5 243/7/5 242/7/5
f 247/8/5 244/8/5 243/8/5
f 247/7/5 243/7/5 246/7/5
f 248/8/5 244/8/5 247/8/5
f 249/9/5 246/9/5 245/9/5
f 249/9/5 247/9/5 246/9/5
f 249/9/5 248/9/5 247/9/5
f 250/9/5 248/9/5 249/9/5
f 251/2/6 252/2/6 254/2/6
f 254/2/6 252/2/6 255/2/6
f 253/2/6 254/2/6 258/2/6
f 254/1/6 255/1/6 259/1/6
f 258/2/6 254/2/6 259/2/6
f 255/2/6 256/2/6 260/2/6
f 259/1/6 255/1/6 260/1/6
f 260/2/6 256/2/6 261/2/6
f 257/2/6 258/2/6 264/2/6
f 258/1/6 259/1/6 265/1/6
f 259/1/6 260/1/6 265/1/6
f 264/2/6 258/2/6 265/2/6
f 260/1/6 261/1/6 265/1/6
f 261/2/6 262/2/6 266/2/6
f 265/1/6 261/1/6 266/1/6
f 266/2/6 262/2/6 267/2/6
f 263/2/6 264/2/6 270/2/6
f 264/1/6 265/1/6 271/1/6
f 265/1/6 266/1/6 271/1/6
f 270/2/6 264/2/6 271/2/6
f 266/1/6 267/1/6 271/1/6
f 267/2/6 268/2/6 272/2/6
f 271/1/6 267/1/6 272/1/6
f 272/2/6 268/2/6 273/2/6
f 270/1/6 271/1/6 275/1/6
f 269/2/6 270/2/6 275/2/6
f 272/1/6 273/1/6 275/1/6
f 271/1/6 272/1/6 275/1/6
f 273/2/6 274/2/6 276/2/6
f 275/1/6 273/1/6 276/1/6
f 269/2/6 275/2/6 278/2/6
f 275/6/6 276/6/6 279/6/6
f 278/2/6 275/2/6 279/2/6
f 276/2/6 274/2/6 280/2/6
f 279/6/6 276/6/6 280/6/6
f 280/2/6 274/2/6 281/2/6
f 277/2/6 278/2/6 283/2/6
f 278/6/6 279/6/6 284/6/6
f 283/2/6 278/2/6 284/2/6
f 279/6/6 280/6/6 284/6/6
f 280/6/6 281/6/6 284/6/6
f 281/2/6 282/2/6 285/2/6
f 284/6/6 281/6/6 285/6/6
f 285/2/6 282/2/6 286/2/6
f 283/7/6 284/7/6 287/7/6
f 284/10/6 285/10/6 287/10/6
f 285/7/6 286/7/6 288/7/6
f 287/10/6 285/10/6 288/10/6
f 283/7/6 287/7/6 289/7/6
f 287/4/6 288/4/6 289/4/6
f 288/7/6 286/7/6 290/7/6
f 289/4/6 288/4/6 290/4/6
f 289/3/6 290/3/6 291/3/6
f 291/3/6 290/3/6 292/3/6
f 283/7/6 289/7/6 293/7/6
f 289/3/6 291/3/6 294/3/6
f 293/7/6 289/7/6 294/7/6
f 291/5/6 292/5/6 295/5/6
f 294/3/6 291/3/6 295/3/6
f 292/3/6 290/3/6 296/3/6
f 295/5/6 292/5/6 296/5/6
f 290/7/6 286/7/6 297/7/6
f 296/3/6 290/3/6 297/3/6
f 297/7/6 286/7/6 298/7/6
f 293/8/6 294/8/6 300/8/6
f 294/3/6 295/3/6 301/3/6
f 295/3/6 296/3/6 301/3/6
f 300/8/6 294/8/6 301/8/6
f 296/3/6 297/3/6 301/3/6
f 297/8/6 298/8/6 302/8/6
f 301/3/6 297/3/6 302/3/6
f 302/8/6 298/8/6 303/8/6
f 299/8/6 300/8/6 306/8/6
f 302/7/6 303/7/6 307/7/6
f 301/7/6 302/7/6 307/7/6
f 306/8/6 300/8/6 307/8/6
f 300/7/6 301/7/6 307/7/6
f 303/8/6 304/8/6 308/8/6
f 307/7/6 303/7/6 308/7/6
f 308/8/6 304/8/6 309/8/6
f 305/8/6 306/8/6 312/8/6
f 306/7/6 307/7/6 313/7/6
f 307/7/6 308/7/6 313/7/6
f 312/8/6 306/8/6 313/8/6
f 308/7/6 309/7/6 313/7/6
f 309/8/6 310/8/6 314/8/6
f 313/7/6 309/7/6 314/7/6
f 314/8/6 310/8/6 315/8/6
f 311/8/6 312/8/6 318/8/6
f 312/7/6 313/7/6 319/7/6
f 313/7/6 314/7/6 319/7/6
f 318/8/6 312/8/6 319/8/6
f 314/7/6 315/7/6 319/7/6
f 315/8/6 316/8/6 320/8/6
f 319/7/6 315/7/6 320/7/6
f 320/8/6 316/8/6 321/8/6
f 317/8/6 318/8/6 323/8/6
f 318/7/6 319/7/6 324/7/6
f 323/8/6 318/8/6 324/8/6
f 319/7/6 320/7/6 324/7/6
f 320/7/6 321/7/6 324/7/6
f 321/8/6 322/8/6 325/8/6
f 324/7/6 321/7/6 325/7/6
f 325/8/6 322/8/6 326/8/6
f 323/9/6 324/9/6 327/9/6
f 324/9/6 325/9/6 327/9/6
f 325/9/6 326/9/6 327/9/6
f 327/9/6 326/9/6 328/9/6
